<?xml version="1.0" encoding="iso-8859-1"?>
<!-- Generator: Adobe Illustrator 19.0.0, SVG Export Plug-In . SVG Version: 6.00 Build 0)  -->
<svg version="1.1" id="Capa_1" xmlns="http://www.w3.org/2000/svg" xmlns:xlink="http://www.w3.org/1999/xlink" x="0px" y="0px"
	 viewBox="0 0 512 512" style="enable-background:new 0 0 512 512;" xml:space="preserve">

<g>
	<g>
		<path d="M502,66H10C4.478,66,0,70.478,0,76v360c0,5.522,4.478,10,10,10h492c5.522,0,10-4.478,10-10V76
			C512,70.478,507.522,66,502,66z M492,426H20V86h472V426z"/>
	</g>
</g>
<g>
	<g>
		<path d="M464.759,247.825l-203-143c-3.453-2.434-8.064-2.434-11.518,0l-203,143C44.582,249.698,43,252.747,43,256
			s1.582,6.302,4.241,8.175l203,143c1.727,1.217,3.743,1.825,5.759,1.825s4.032-0.608,5.759-1.825l203-143
			c2.659-1.873,4.241-4.922,4.241-8.175C469,252.747,467.418,249.698,464.759,247.825z M256,386.768L70.364,256L256,125.232
			L441.636,256L256,386.768z"/>
	</g>
</g>
<g>
	<g>
		<path d="M256,176c-44.241,0-80,35.935-80,80c0,44.112,35.888,80,80,80c44.312,0,80-35.772,80-80C336,211.888,300.112,176,256,176z
			 M256,196c31.52,0,57.422,24.437,59.803,55.357c-34.769-18.536-73.997-26.377-113.229-22.632C212.661,209.128,233.232,196,256,196
			z M256,316c-33.084,0-60-26.916-60-60c0-2.143,0.117-4.283,0.344-6.407c40.716-5.737,81.836,2.485,117.202,23.433
			C306.124,298.281,282.901,316,256,316z"/>
	</g>
</g>
<g>
</g>
<g>
</g>
<g>
</g>
<g>
</g>
<g>
</g>
<g>
</g>
<g>
</g>
<g>
</g>
<g>
</g>
<g>
</g>
<g>
</g>
<g>
</g>
<g>
</g>
<g>
</g>
<g>
</g>
</svg>
