<svg xmlns="http://www.w3.org/2000/svg" viewBox="0 0 392.598 392.598"><path d="M21.818 359.822c0 6.012 4.848 10.925 10.925 10.925h327.111c6.012 0 10.925-4.848 10.925-10.925V106.731H21.818v253.091z" fill="#fff"/><path d="M370.78 32.711c0-6.012-4.848-10.925-10.925-10.925H32.743c-6.012 0-10.925 4.848-10.925 10.925v52.17H370.78v-52.17z" fill="#56ace0"/><path d="M43.604 128.517v12.994h36.461c6.012 0 10.925 4.848 10.925 10.925 0 6.012-4.848 10.925-10.925 10.925H43.604v18.489h22.949c6.012 0 10.925 4.848 10.925 10.925S72.63 203.7 66.553 203.7H43.604v145.325h305.325V128.517H43.604z" fill="#ffc10d"/><g fill="#194f82"><path d="M51.62 266.214c0 32.517 25.018 54.238 55.919 54.238 16.226 0 30.384-6.723 42.343-20.234l-15.063-15.515c-7.305 9.05-16.743 13.705-28.315 13.705-18.36 0-30.513-16.162-30.513-32.517 0-19.523 15.321-32.065 32.129-32.065 11.055 0 20.299 4.655 27.733 13.899l14.61-16.614c-11.636-13.188-26.182-19.782-43.507-19.782-31.998 0-55.336 25.406-55.336 54.885zM216.727 296.792c-2.651 1.681-5.883 2.78-10.214 2.78-9.632 0-20.17-4.913-31.547-14.933L160.873 301.9c13.382 12.347 28.444 18.554 45.123 18.554 11.572 0 20.816-3.038 27.992-8.792 14.287-11.507 13.317-35.62 2.327-44.606-5.689-4.719-13.317-8.663-23.337-11.119-10.02-2.457-16.226-4.913-19.135-6.4-4.396-2.133-6.4-10.214-.776-14.675 2.327-1.875 5.301-2.78 9.244-2.78 9.762 0 19.265 3.491 28.38 10.408l11.895-17.261c-5.236-4.396-20.493-13.899-39.564-13.899-10.731 0-19.653 2.909-26.958 8.145-15.321 10.925-12.541 37.236-2.263 45.188 5.818 4.59 14.675 8.469 26.958 11.378 7.758 1.939 12.994 3.685 15.515 5.624 7.564 5.624 3.621 13.123.453 15.127zM312.986 296.792c-2.651 1.681-5.883 2.78-10.214 2.78-9.632 0-20.17-4.913-31.547-14.933L257.132 301.9c13.382 12.347 28.444 18.554 45.123 18.554 11.572 0 20.816-3.038 27.992-8.792 14.287-11.507 13.317-35.62 2.327-44.606-5.689-4.719-13.317-8.663-23.337-11.119-10.02-2.457-16.226-4.913-19.135-6.4-4.396-2.133-6.4-10.214-.776-14.675 2.327-1.875 5.301-2.78 9.244-2.78 9.762 0 19.265 3.491 28.38 10.408l11.895-17.261c-5.236-4.396-20.493-13.899-39.564-13.899-10.731 0-19.653 2.909-26.958 8.145-15.321 10.925-12.541 37.236-2.263 45.188 5.818 4.59 14.675 8.469 26.958 11.378 7.758 1.939 12.994 3.685 15.515 5.624 7.564 5.624 3.621 13.123.453 15.127z"/><path d="M359.855 0H32.743C14.707 0 .032 14.675.032 32.711v327.111c0 18.101 14.675 32.776 32.711 32.776h327.111c18.036 0 32.711-14.675 32.711-32.711V32.711C392.566 14.675 377.891 0 359.855 0zM21.818 32.711c0-6.012 4.848-10.925 10.925-10.925h327.111c6.012 0 10.925 4.848 10.925 10.925v52.17H21.818v-52.17zM370.78 359.822c0 6.012-4.848 10.925-10.925 10.925H32.743c-6.012 0-10.925-4.848-10.925-10.925V106.731H370.78v253.091z"/><path d="M75.216 40.533H58.279c-6.012 0-10.925 4.848-10.925 10.925s4.848 10.925 10.925 10.925h16.937c6.012 0 10.925-4.848 10.925-10.925s-4.913-10.925-10.925-10.925zM138.828 40.533h-16.937c-6.012 0-10.925 4.848-10.925 10.925s4.848 10.925 10.925 10.925h16.937c5.947 0 10.925-4.848 10.925-10.925s-4.913-10.925-10.925-10.925zM204.768 40.533h-17.002c-6.012 0-10.925 4.848-10.925 10.925s4.848 10.925 10.925 10.925h17.002c6.012 0 10.925-4.848 10.925-10.925s-4.849-10.925-10.925-10.925z"/></g></svg>