<svg height="512pt" viewBox="-61 0 512 512.0003" width="512pt" xmlns="http://www.w3.org/2000/svg"><path d="m389.523438 194.761719c0 68.550781-35.421876 128.828125-88.953126 163.53125-8.0625 5.234375-14.796874 12.265625-19.535156 20.625l-65.511718 115.738281-4.433594 7.820312c-7.1875 12.699219-25.46875 12.699219-32.65625 0l-69.945313-123.558593c-4.726562-8.351563-11.449219-15.378907-19.503906-20.59375-54.300781-35.1875-89.976563-96.679688-88.9648438-166.433594 1.5117188-104.859375 87.1093748-190.414063 191.9648438-191.8710938 7.980469-.1132812 15.855469.2539068 23.601563 1.0781248 97.777343 10.386719 173.9375 93.132813 173.9375 193.664063zm0 0" fill="#1ed688"/><path d="m389.523438 194.761719c0 68.550781-35.421876 128.828125-88.953126 163.53125-8.0625 5.234375-14.796874 12.265625-19.535156 20.625l-65.511718 115.738281-65.523438-115.738281c-4.726562-8.351563-11.441406-15.378907-19.492188-20.59375-54.304687-35.1875-89.980468-96.679688-88.976562-166.433594 1.425781-98.820313 77.523438-180.492187 174.054688-190.792969 97.777343 10.386719 173.9375 93.132813 173.9375 193.664063zm0 0" fill="#35e298"/><path d="m338.5625 194.535156c0 79.417969-64.382812 143.800782-143.800781 143.800782s-143.800781-64.382813-143.800781-143.800782c0-79.421875 64.382812-143.804687 143.800781-143.804687s143.800781 64.382812 143.800781 143.804687zm0 0" fill="#169b62"/><path d="m336.359375 197.214844-140.148437 87.304687c-.929688.582031-2.109376.582031-3.039063 0l-140.011719-87.304687c-1.796875-1.121094-1.800781-3.742188-.003906-4.871094l140.011719-87.792969c.929687-.585937 2.117187-.585937 3.050781-.003906l140.148438 87.796875c1.796874 1.128906 1.796874 3.75-.007813 4.871094zm0 0" fill="#ffea06"/><path d="m254.511719 194.59375c0 1.519531-.054688 3.027344-.167969 4.527344-.464844 6.269531-1.902344 12.265625-4.148438 17.847656-8.867187 22.015625-30.429687 37.5625-55.625 37.5625-33.109374 0-59.9375-26.839844-59.9375-59.9375 0-3.589844.316407-7.105469.917969-10.511719 1.109375-6.25 3.175781-12.160156 6.058594-17.574219 10.070313-18.957031 30.007813-31.855468 52.960937-31.855468 33.101563 0 59.941407 26.832031 59.941407 59.941406zm0 0" fill="#4172cc"/><path d="m254.34375 199.121094c-.464844 6.269531-1.902344 12.265625-4.148438 17.847656l-2.988281-3.019531c-48.960937-44.792969-106.714843-31.15625-107.285156-31.007813l-4.371094 1.140625c1.109375-6.25 3.175781-12.160156 6.058594-17.574219 16.675781-2.660156 67.167969-6.554687 112.734375 32.613282zm0 0" fill="#ebebf0"/></svg>