<svg id="Layer_1" enable-background="new 0 0 512 512" height="512" viewBox="0 0 512 512" width="512" xmlns="http://www.w3.org/2000/svg"><path d="m0 61v180h241v-180zm60.5 141.21-21.21-21.21 21.21-21.21 21.21 21.21zm0-60-21.21-21.21 21.21-21.21 21.21 21.21zm60 60-21.21-21.21 21.21-21.21 21.21 21.21zm0-60-21.21-21.21 21.21-21.21 21.21 21.21zm60 60-21.21-21.21 21.21-21.21 21.21 21.21zm0-60-21.21-21.21 21.21-21.21 21.21 21.21z"/><path d="m0 271h512v40h-512z"/><path d="m0 341h512v40h-512z"/><path d="m0 411h512v40h-512z"/><path d="m271 61h241v40h-241z"/><path d="m271 131h241v40h-241z"/><path d="m271 201h241v40h-241z"/></svg>